<?xml version="1.0" encoding="UTF-8" standalone="no"?>
<svg width="50" height="150" xmlns="http://www.w3.org/2000/svg">
<rect x="5" y="145" width="5" height="5" fill="#800080"/><rect x="10" y="145" width="5" height="5" fill="#800080"/><rect x="15" y="145" width="5" height="5" fill="#800080"/><rect x="30" y="145" width="5" height="5" fill="#800080"/><rect x="35" y="145" width="5" height="5" fill="#800080"/><rect x="40" y="145" width="5" height="5" fill="#800080"/><rect x="15" y="140" width="5" height="5" fill="#d99a8e"/><rect x="15" y="135" width="5" height="5" fill="#d99a8e"/><rect x="15" y="130" width="5" height="5" fill="#d99a8e"/><rect x="15" y="125" width="5" height="5" fill="#d99a8e"/><rect x="15" y="120" width="5" height="5" fill="#d99a8e"/><rect x="30" y="140" width="5" height="5" fill="#d99a8e"/><rect x="30" y="135" width="5" height="5" fill="#d99a8e"/><rect x="30" y="130" width="5" height="5" fill="#d99a8e"/><rect x="30" y="125" width="5" height="5" fill="#d99a8e"/><rect x="30" y="120" width="5" height="5" fill="#d99a8e"/><rect x="10" y="115" width="5" height="5" fill="#483D8B"/><rect x="10" y="110" width="5" height="5" fill="#483D8B"/><rect x="10" y="105" width="5" height="5" fill="#483D8B"/><rect x="10" y="100" width="5" height="5" fill="#483D8B"/><rect x="10" y="95" width="5" height="5" fill="#483D8B"/><rect x="10" y="90" width="5" height="5" fill="#483D8B"/><rect x="15" y="115" width="5" height="5" fill="#483D8B"/><rect x="15" y="110" width="5" height="5" fill="#483D8B"/><rect x="15" y="105" width="5" height="5" fill="#483D8B"/><rect x="15" y="100" width="5" height="5" fill="#483D8B"/><rect x="15" y="95" width="5" height="5" fill="#483D8B"/><rect x="15" y="90" width="5" height="5" fill="#483D8B"/><rect x="20" y="95" width="5" height="5" fill="#483D8B"/><rect x="20" y="90" width="5" height="5" fill="#483D8B"/><rect x="25" y="95" width="5" height="5" fill="#483D8B"/><rect x="25" y="90" width="5" height="5" fill="#483D8B"/><rect x="30" y="115" width="5" height="5" fill="#483D8B"/><rect x="30" y="110" width="5" height="5" fill="#483D8B"/><rect x="30" y="105" width="5" height="5" fill="#483D8B"/><rect x="30" y="100" width="5" height="5" fill="#483D8B"/><rect x="30" y="95" width="5" height="5" fill="#483D8B"/><rect x="30" y="90" width="5" height="5" fill="#483D8B"/><rect x="35" y="115" width="5" height="5" fill="#483D8B"/><rect x="35" y="110" width="5" height="5" fill="#483D8B"/><rect x="35" y="105" width="5" height="5" fill="#483D8B"/><rect x="35" y="100" width="5" height="5" fill="#483D8B"/><rect x="35" y="95" width="5" height="5" fill="#483D8B"/><rect x="35" y="90" width="5" height="5" fill="#483D8B"/><rect x="10" y="85" width="5" height="5" fill="#1E90FF"/><rect x="10" y="80" width="5" height="5" fill="#1E90FF"/><rect x="10" y="75" width="5" height="5" fill="#1E90FF"/><rect x="10" y="70" width="5" height="5" fill="#1E90FF"/><rect x="10" y="65" width="5" height="5" fill="#1E90FF"/><rect x="10" y="60" width="5" height="5" fill="#1E90FF"/><rect x="10" y="55" width="5" height="5" fill="#1E90FF"/><rect x="15" y="85" width="5" height="5" fill="#1E90FF"/><rect x="15" y="80" width="5" height="5" fill="#1E90FF"/><rect x="15" y="75" width="5" height="5" fill="#1E90FF"/><rect x="15" y="70" width="5" height="5" fill="#1E90FF"/><rect x="15" y="65" width="5" height="5" fill="#1E90FF"/><rect x="15" y="60" width="5" height="5" fill="#1E90FF"/><rect x="15" y="55" width="5" height="5" fill="#1E90FF"/><rect x="20" y="85" width="5" height="5" fill="#1E90FF"/><rect x="20" y="80" width="5" height="5" fill="#1E90FF"/><rect x="20" y="75" width="5" height="5" fill="#1E90FF"/><rect x="20" y="70" width="5" height="5" fill="#1E90FF"/><rect x="20" y="65" width="5" height="5" fill="#1E90FF"/><rect x="20" y="60" width="5" height="5" fill="#1E90FF"/><rect x="20" y="55" width="5" height="5" fill="#1E90FF"/><rect x="25" y="85" width="5" height="5" fill="#1E90FF"/><rect x="25" y="80" width="5" height="5" fill="#1E90FF"/><rect x="25" y="75" width="5" height="5" fill="#1E90FF"/><rect x="25" y="70" width="5" height="5" fill="#1E90FF"/><rect x="25" y="65" width="5" height="5" fill="#1E90FF"/><rect x="25" y="60" width="5" height="5" fill="#1E90FF"/><rect x="25" y="55" width="5" height="5" fill="#1E90FF"/><rect x="30" y="85" width="5" height="5" fill="#1E90FF"/><rect x="30" y="80" width="5" height="5" fill="#1E90FF"/><rect x="30" y="75" width="5" height="5" fill="#1E90FF"/><rect x="30" y="70" width="5" height="5" fill="#1E90FF"/><rect x="30" y="65" width="5" height="5" fill="#1E90FF"/><rect x="30" y="60" width="5" height="5" fill="#1E90FF"/><rect x="30" y="55" width="5" height="5" fill="#1E90FF"/><rect x="35" y="85" width="5" height="5" fill="#1E90FF"/><rect x="35" y="80" width="5" height="5" fill="#1E90FF"/><rect x="35" y="75" width="5" height="5" fill="#1E90FF"/><rect x="35" y="70" width="5" height="5" fill="#1E90FF"/><rect x="35" y="65" width="5" height="5" fill="#1E90FF"/><rect x="35" y="60" width="5" height="5" fill="#1E90FF"/><rect x="35" y="55" width="5" height="5" fill="#1E90FF"/><rect x="5" y="100" width="5" height="5" fill="#d99a8e"/><rect x="5" y="95" width="5" height="5" fill="#d99a8e"/><rect x="5" y="90" width="5" height="5" fill="#d99a8e"/><rect x="40" y="100" width="5" height="5" fill="#d99a8e"/><rect x="40" y="95" width="5" height="5" fill="#d99a8e"/><rect x="40" y="90" width="5" height="5" fill="#d99a8e"/><rect x="5" y="85" width="5" height="5" fill="#1E90FF"/><rect x="5" y="80" width="5" height="5" fill="#1E90FF"/><rect x="5" y="75" width="5" height="5" fill="#1E90FF"/><rect x="5" y="70" width="5" height="5" fill="#1E90FF"/><rect x="5" y="65" width="5" height="5" fill="#1E90FF"/><rect x="5" y="60" width="5" height="5" fill="#1E90FF"/><rect x="5" y="55" width="5" height="5" fill="#1E90FF"/><rect x="40" y="85" width="5" height="5" fill="#1E90FF"/><rect x="40" y="80" width="5" height="5" fill="#1E90FF"/><rect x="40" y="75" width="5" height="5" fill="#1E90FF"/><rect x="40" y="70" width="5" height="5" fill="#1E90FF"/><rect x="40" y="65" width="5" height="5" fill="#1E90FF"/><rect x="40" y="60" width="5" height="5" fill="#1E90FF"/><rect x="40" y="55" width="5" height="5" fill="#1E90FF"/><rect x="10" y="50" width="5" height="5" fill="#1E90FF"/><rect x="15" y="50" width="5" height="5" fill="#1E90FF"/><rect x="20" y="50" width="5" height="5" fill="#1E90FF"/><rect x="25" y="50" width="5" height="5" fill="#1E90FF"/><rect x="30" y="50" width="5" height="5" fill="#1E90FF"/><rect x="35" y="50" width="5" height="5" fill="#1E90FF"/><rect x="20" y="45" width="5" height="5" fill="#d99a8e"/><rect x="25" y="45" width="5" height="5" fill="#d99a8e"/><rect x="10" y="40" width="5" height="5" fill="#d99a8e"/><rect x="15" y="40" width="5" height="5" fill="#d99a8e"/><rect x="20" y="40" width="5" height="5" fill="#d99a8e"/><rect x="25" y="40" width="5" height="5" fill="#d99a8e"/><rect x="30" y="40" width="5" height="5" fill="#d99a8e"/><rect x="35" y="40" width="5" height="5" fill="#d99a8e"/><rect x="10" y="35" width="5" height="5" fill="#d99a8e"/><rect x="15" y="35" width="5" height="5" fill="#d99a8e"/><rect x="20" y="35" width="5" height="5" fill="#d99a8e"/><rect x="25" y="35" width="5" height="5" fill="#d99a8e"/><rect x="30" y="35" width="5" height="5" fill="#d99a8e"/><rect x="35" y="35" width="5" height="5" fill="#d99a8e"/><rect x="10" y="30" width="5" height="5" fill="#d99a8e"/><rect x="20" y="30" width="5" height="5" fill="#d99a8e"/><rect x="25" y="30" width="5" height="5" fill="#d99a8e"/><rect x="35" y="30" width="5" height="5" fill="#d99a8e"/><rect x="10" y="25" width="5" height="5" fill="#d99a8e"/><rect x="15" y="25" width="5" height="5" fill="#d99a8e"/><rect x="20" y="25" width="5" height="5" fill="#d99a8e"/><rect x="25" y="25" width="5" height="5" fill="#d99a8e"/><rect x="30" y="25" width="5" height="5" fill="#d99a8e"/><rect x="35" y="25" width="5" height="5" fill="#d99a8e"/><rect x="15" y="30" width="5" height="5" fill="#000000"/><rect x="30" y="30" width="5" height="5" fill="#000000"/><rect x="5" y="30" width="5" height="5" fill="#ce9286"/><rect x="40" y="30" width="5" height="5" fill="#ce9286"/><rect x="10" y="20" width="5" height="5" fill="#d99a8e"/><rect x="15" y="20" width="5" height="5" fill="#d99a8e"/><rect x="20" y="20" width="5" height="5" fill="#d99a8e"/><rect x="25" y="20" width="5" height="5" fill="#d99a8e"/><rect x="30" y="20" width="5" height="5" fill="#d99a8e"/><rect x="35" y="20" width="5" height="5" fill="#d99a8e"/><rect x="10" y="15" width="5" height="5" fill="#000000"/><rect x="15" y="15" width="5" height="5" fill="#000000"/><rect x="20" y="15" width="5" height="5" fill="#000000"/><rect x="25" y="15" width="5" height="5" fill="#000000"/><rect x="30" y="15" width="5" height="5" fill="#000000"/><rect x="35" y="15" width="5" height="5" fill="#000000"/><rect x="15" y="10" width="5" height="5" fill="#000000"/><rect x="20" y="10" width="5" height="5" fill="#000000"/><rect x="25" y="10" width="5" height="5" fill="#000000"/><rect x="30" y="10" width="5" height="5" fill="#000000"/><rect x="20" y="5" width="5" height="5" fill="#000000"/><rect x="25" y="5" width="5" height="5" fill="#000000"/></svg>